<svg width="633" height="144" viewBox="0 0 633 144" fill="none" xmlns="http://www.w3.org/2000/svg">
<path d="M59.207 0C48.7266 0 0 23.6602 0 23.6602V93.0078C0 107.332 6.48828 120.301 17.0195 129.75C17.0273 129.762 17.0312 129.766 17.0352 129.766C26.6055 137.898 38.9883 142.809 52.4961 142.809C52.6641 142.809 52.8281 142.809 52.9922 142.805C53 142.809 53 142.809 53.0039 142.805C83 142.535 107.328 118.043 107.328 87.9805C107.328 86.5625 108.473 85.4141 109.891 85.4141C111.301 85.4141 112.453 86.5625 112.453 87.9805C112.453 107.707 102.879 125.234 88.1328 136.168C88.1289 136.176 88.1289 136.176 88.1211 136.176C84.2031 139.082 79.9219 141.52 75.3555 143.406C100.215 137.184 118.426 116.977 118.426 93.0039V23.6602C118.426 23.6602 72.6562 0 59.207 0ZM83.8672 86.0664H70.1719V99.7656C70.1719 105.328 65.2656 109.832 59.207 109.832C53.1562 109.832 48.25 105.328 48.25 99.7656V86.0664H34.5586C28.9922 86.0664 24.4844 81.1602 24.4844 75.1094C24.4844 69.0508 28.9922 64.1445 34.5586 64.1445H48.25V50.4531C48.25 44.8906 53.1562 40.3789 59.207 40.3789C65.2656 40.3789 70.1719 44.8906 70.1719 50.4531V64.1445H83.8672C89.4258 64.1445 93.9336 69.0508 93.9336 75.1094C93.9336 81.1602 89.4258 86.0664 83.8672 86.0664ZM100.34 46.5156C96.9531 43.125 96.9531 37.6367 100.34 34.25C103.723 30.8594 109.211 30.8594 112.602 34.25C115.988 37.6367 115.988 43.125 112.602 46.5156C109.211 49.8984 103.723 49.8945 100.34 46.5156Z" fill="#1374F2"/>
<path d="M190.186 29.295C197.586 29.295 203.099 31.145 206.725 34.845C210.351 38.471 212.164 43.17 212.164 48.942C212.164 49.904 212.053 50.829 211.831 51.717C210.573 52.383 209.019 52.716 207.169 52.716C205.393 52.716 203.617 52.642 201.841 52.494C201.915 51.902 201.952 51.125 201.952 50.163C201.952 45.797 200.916 42.319 198.844 39.729C196.772 37.139 193.886 35.844 190.186 35.844C177.902 35.844 171.76 45.797 171.76 65.703C171.76 85.535 177.902 95.451 190.186 95.451C193.072 95.451 196.069 94.748 199.177 93.342C202.285 91.936 204.912 90.012 207.058 87.57C209.352 89.42 210.832 92.343 211.498 96.339C204.912 101.223 197.808 103.665 190.186 103.665C181.232 103.665 174.535 101.186 170.095 96.228C166.395 92.158 164.101 85.942 163.213 77.58C162.843 74.176 162.658 70.217 162.658 65.703C162.658 41.431 171.834 29.295 190.186 29.295ZM243.703 63.261C245.849 65.259 248.402 66.258 251.362 66.258C254.396 66.258 256.838 65.37 258.688 63.594C261.648 60.782 263.128 56.601 263.128 51.051C263.128 40.765 258.244 35.622 248.476 35.622C245.368 35.622 241.89 36.362 238.042 37.842C237.524 43.762 237.265 54.899 237.265 71.253C237.265 87.607 237.894 97.782 239.152 101.778C236.71 102.518 234.453 102.888 232.381 102.888C230.309 102.888 228.644 102.814 227.386 102.666C228.422 94.008 228.94 81.909 228.94 66.369C228.94 50.829 228.311 39.507 227.053 32.403C233.269 30.331 240.447 29.295 248.587 29.295C264.719 29.295 272.785 36.547 272.785 51.051C272.785 56.527 271.416 61.226 268.678 65.148C265.94 69.07 261.796 71.549 256.246 72.585C264.09 85.091 270.602 94.711 275.782 101.445C273.266 102.703 270.787 103.332 268.345 103.332C265.903 103.332 264.275 103.295 263.461 103.221C259.539 94.933 253.767 84.795 246.145 72.807C244.665 72.585 243.074 72.178 241.372 71.586C241.372 69.736 241.631 68.034 242.149 66.48C242.667 64.852 243.185 63.779 243.703 63.261ZM339.324 71.253C339.324 75.693 339.176 79.43 338.88 82.464C338.584 85.424 337.918 88.347 336.882 91.233C335.92 94.119 334.551 96.413 332.775 98.115C328.927 101.815 322.933 103.665 314.793 103.665C304.359 103.665 297.514 100.742 294.258 94.896C292.63 91.788 291.52 88.458 290.928 84.906C290.41 81.354 290.151 76.803 290.151 71.253C290.151 51.569 289.522 38.175 288.264 31.071C290.188 30.331 292.112 29.961 294.036 29.961C295.96 29.961 297.958 30.035 300.03 30.183C298.994 38.397 298.476 52.124 298.476 71.364C298.476 79.652 299.623 85.757 301.917 89.679C304.211 93.527 308.762 95.451 315.57 95.451C322.378 95.451 326.855 93.527 329.001 89.679C331.221 85.757 332.331 79.652 332.331 71.364C332.331 51.606 331.702 38.175 330.444 31.071C332.368 30.331 334.07 29.961 335.55 29.961C337.03 29.961 338.806 30.035 340.878 30.183C339.842 38.397 339.324 52.087 339.324 71.253ZM383.342 29.295C388.818 29.295 393.517 30.331 397.439 32.403C401.361 34.401 404.395 37.176 406.541 40.728C410.537 47.61 412.535 56.009 412.535 65.925C412.535 79.689 409.797 89.642 404.321 95.784C402.175 98.078 399.326 99.965 395.774 101.445C392.222 102.925 388.078 103.665 383.342 103.665C374.388 103.665 367.136 102.629 361.586 100.557C362.622 91.899 363.14 80.17 363.14 65.37C363.14 50.496 362.511 39.507 361.253 32.403C367.617 30.331 374.98 29.295 383.342 29.295ZM383.342 95.784C396.44 95.784 402.989 85.831 402.989 65.925C402.989 60.227 402.397 55.232 401.213 50.94C400.029 46.648 397.92 43.059 394.886 40.173C391.852 37.287 388.189 35.844 383.897 35.844C379.679 35.844 375.794 36.547 372.242 37.953C371.724 43.873 371.465 52.938 371.465 65.148C371.465 77.284 371.761 86.719 372.353 93.453C375.831 95.007 379.494 95.784 383.342 95.784ZM476.348 29.295C481.824 29.295 486.523 30.331 490.445 32.403C494.367 34.401 497.401 37.176 499.547 40.728C503.543 47.61 505.541 56.009 505.541 65.925C505.541 79.689 502.803 89.642 497.327 95.784C495.181 98.078 492.332 99.965 488.78 101.445C485.228 102.925 481.084 103.665 476.348 103.665C467.394 103.665 460.142 102.629 454.592 100.557C455.628 91.899 456.146 80.17 456.146 65.37C456.146 50.496 455.517 39.507 454.259 32.403C460.623 30.331 467.986 29.295 476.348 29.295ZM476.348 95.784C489.446 95.784 495.995 85.831 495.995 65.925C495.995 60.227 495.403 55.232 494.219 50.94C493.035 46.648 490.926 43.059 487.892 40.173C484.858 37.287 481.195 35.844 476.903 35.844C472.685 35.844 468.8 36.547 465.248 37.953C464.73 43.873 464.471 52.938 464.471 65.148C464.471 77.284 464.767 86.719 465.359 93.453C468.837 95.007 472.5 95.784 476.348 95.784ZM532.228 93.564C534.818 93.786 539.295 93.897 545.659 93.897C552.023 93.897 557.166 93.564 561.088 92.898C561.68 94.822 561.976 96.709 561.976 98.559C561.976 100.335 561.828 101.889 561.532 103.221C560.126 102.851 557.166 102.481 552.652 102.111C548.138 101.815 543.069 101.667 537.445 101.667C531.821 101.667 526.53 101.926 521.572 102.444C522.608 92.232 523.126 79.837 523.126 65.259C523.126 50.681 522.423 39.026 521.017 30.294C525.975 30.812 531.303 31.071 537.001 31.071C542.699 31.071 547.768 30.923 552.208 30.627C556.722 30.257 559.645 29.887 560.977 29.517C561.273 30.849 561.421 32.329 561.421 33.957C561.421 35.585 561.125 37.361 560.533 39.285C556.611 38.619 551.542 38.286 545.326 38.286C539.11 38.286 534.707 38.397 532.117 38.619C531.673 42.837 531.451 50.459 531.451 61.485C533.005 61.559 536.742 61.596 542.662 61.596C548.582 61.596 553.392 61.189 557.092 60.375C557.462 62.743 557.647 64.704 557.647 66.258C557.647 67.738 557.61 68.959 557.536 69.921C554.058 69.329 549.655 69.033 544.327 69.033C538.999 69.033 534.707 69.107 531.451 69.255C531.451 78.949 531.71 87.052 532.228 93.564ZM605.549 102C602.885 102.666 600.443 102.999 598.223 102.999C596.077 102.999 594.671 102.962 594.005 102.888C590.897 91.788 587.012 79.134 582.35 64.926C577.762 50.644 573.803 39.729 570.473 32.181C573.581 30.701 576.319 29.961 578.687 29.961C581.055 29.961 582.646 29.998 583.46 30.072C584.496 37.99 586.679 48.165 590.009 60.597C593.339 73.029 596.78 83.611 600.332 92.343H600.998C604.18 84.499 607.51 73.806 610.988 60.264C614.54 46.722 616.464 36.88 616.76 30.738C617.796 30.516 618.832 30.405 619.868 30.405C623.494 30.405 626.491 31.145 628.859 32.625C626.787 37.657 622.828 48.646 616.982 65.592C611.21 82.464 607.399 94.6 605.549 102Z" fill="#24353D"/>
</svg>
